<?xml version="1.0" encoding="utf-8"?>
<!-- Generator: Adobe Illustrator 22.0.1, SVG Export Plug-In . SVG Version: 6.00 Build 0)  -->
<svg version="1.1" id="Wind" xmlns="http://www.w3.org/2000/svg" xmlns:xlink="http://www.w3.org/1999/xlink" x="0px" y="0px"
	 width="631.5px" height="660.4px" viewBox="0 0 631.5 660.4" enable-background="new 0 0 631.5 660.4" xml:space="preserve">
<g id="windGroup">
	<path fill="#E0E0E0" d="M468.5,539.9c-11.3-9.4-29.9-7.4-43.1-4.5c-15.5,3.4-30.1,11-41.8,21.8c-8,7.4-24.4,24.1-14.7,35.8
		c3.9,4.6,11.4,4.7,15.4,0.1c4.1-4.8,2.2-11.8-2.7-15.1c-1.4-0.9-2.7,1.3-1.3,2.2c5,3.4,4.9,11.4-1.4,13.3c-5.4,1.6-9.6-2.8-9.9-7.9
		c-0.5-7.5,5.6-14.6,10.2-19.9c9.1-10.5,20.9-18.6,33.8-23.8c12.2-4.9,25.8-7.3,38.9-5.8c7.4,0.9,16.1,3.5,19.8,10.6
		c3.4,6.5,2.2,14.1-4.2,18.2c-0.1,0.1,0,0.3,0.1,0.3C478.3,561.5,475.6,545.8,468.5,539.9z"/>
	<path fill="#E0E0E0" d="M301.6,526.9c-26-11.4-56.4-19.1-84-9.1c-21.3,7.7-41.6,26.5-42.1,50.5c-0.2,11.4,5.2,22.3,16.1,26.7
		c10.2,4.1,22,0.9,28.8-7.7c7.1-9,7-24.1-5-28.9c-9.7-3.9-20.6,5.9-15.4,15.7c0.6,1.1,2.6,0.3,2.1-0.9c-2.1-5,0.5-11.1,5.9-12.7
		c7-2,13.5,4.1,14.5,10.7c1.9,12.3-9.7,23-21.5,23c-12.1,0.1-21.2-9.4-22.8-21c-1.4-10.1,2-20.3,7.6-28.7
		c10.7-16.1,29.5-25.8,48.3-28.1c23.6-3,47.3,3.7,68.6,13.4c22.4,10.1,43.7,26.5,46.5,52.7c0,0.1,0.2,0.2,0.2,0
		C350.6,554.6,324.3,536.9,301.6,526.9z"/>
	<path fill="#E0E0E0" d="M261.7,551.6c-16.3,3.3-27.5,25.1-21.1,40.5c0.2,0.4,0.9,0.4,0.8-0.1c-0.7-9-0.9-16.7,3.7-24.9
		c3.9-6.8,10.1-11.2,16.6-15.3C261.9,551.7,261.8,551.5,261.7,551.6z"/>
	<path fill="#E0E0E0" d="M150.3,617.8c-17.5-10.9-41.6-4.4-56.2-20.9c-13.6-15.4-12.5-40.2,4.7-52.3c15.9-11.3,45.3-9.5,51.2,12.7
		c1.7,6.6,0.2,14.6-5.2,19.1c-5.1,4.3-13.4,5.2-18.6,0.6c-4.8-4.3-6-13.2-0.4-17.5c4.9-3.7,12.4-2.1,15.2,3.3
		c0.7,1.5,2.9,0.2,2.2-1.3c-3.6-7.2-14.2-8.9-20-3.4c-6.6,6.2-4.1,18.1,3.3,22.5c8.7,5.2,20.5,0.3,24.7-8.4
		c5-10.3,0.8-22.2-7.6-29.3c-16.5-13.9-43-8.8-55.1,8.6c-12,17.4-5.2,43.5,12.9,53.9c13.7,7.9,30.6,5.5,44.8,12.3
		c7.6,3.7,13.7,10.3,14.2,19.1c0.5,8.7-4,15.9-8.7,22.8c-0.2,0.3,0.2,0.6,0.5,0.4C166,649.1,165.6,627.3,150.3,617.8z"/>
	<path fill="#E0E0E0" d="M208.9,500.7c0.4-0.2,0.1-0.8-0.3-0.7c-12.4,4.6-23.1,14.5-30.5,25.3c-3.9,5.7-7.2,12-9.4,18.5
		c-1.9,5.7-4.3,13-3.1,19c0.1,0.5,0.8,0.4,0.9,0c2-5.9,2.2-12.5,4.3-18.5c2.2-6.2,5-12,8.6-17.5C187,515.5,197.2,507.6,208.9,500.7z
		"/>
	<path fill="#E0E0E0" d="M89.9,614.8c-3.3-2.2-6.3-4.7-9-7.6c-5.2-5.5-9.4-12.1-11.9-19.3c-2.6-7.4-3.7-15.5-2.9-23.3
		c0.8-8.4,4.5-15.6,7.4-23.4c0,0-0.1-0.1-0.1,0c-10.4,11.8-10.7,33-5.9,47.2c2.4,7,6.2,13.5,11.1,19c4.4,4.9,11.6,12.3,18.4,13.3
		c0.5,0.1,1-0.5,0.5-0.9C95.4,617.6,92.4,616.5,89.9,614.8z"/>
	<path fill="#E0E0E0" d="M553.4,403.8c-1.6-15.8,1.5-31.6,6.9-46.5c5.6-15.4,13.5-29.6,21.1-44c6.5-12.4,12.7-25.7,13.2-39.9
		c0.4-11.3-2.8-23.4-11-31.5c-8.5-8.5-21.3-11.1-33-9.3c-11.6,1.8-25.6,9.4-27.2,22.3c-1.2,9.6,6.1,20.7,16.4,19.9
		c0.4,0,0.5-0.7,0-0.7c-7-0.1-12.3-5.3-14.1-11.8c-1.9-6.8,0.5-13.5,5.3-18.5c9-9.4,24.4-12.2,36.7-9c13.1,3.5,21.5,14.2,24.1,27.2
		c2.7,13.7-1.3,27.3-7,39.7c-11.2,24.5-26.3,46.7-31.8,73.5c-5,24.3,0.6,46.9,10.6,69.1c11.4,25.3,25.5,48.7,32.4,75.8
		c0.3,1.3,2.2,0.7,2-0.5c-4.8-26.7-21.1-50.3-32.2-74.7C559.6,432,554.8,418.1,553.4,403.8z"/>
	<path fill="#E0E0E0" d="M551.8,307.6c-10.8,16.4-22,32.6-31.3,50c-15.8,29.6-26.2,65.1-14.5,98c5.1,14.5,15.4,31,29.9,37.5
		c0.4,0.2,0.9-0.3,0.5-0.6c-6.6-5.4-12.9-10.2-17.9-17.1c-5-6.8-8.8-14.4-11.4-22.4c-5.8-17.8-5.3-36.8-0.8-54.9
		c9.7-39.3,35.9-70.6,56.5-104.4c4.1-6.7,8.4-14.6,7.2-22.7c-1-6.6-4.8-12.3-11.4-13.9c-0.2,0-0.2,0.2-0.1,0.3
		c10.5,3.6,11.6,16.1,8.2,25.1C563.4,291.4,557.1,299.6,551.8,307.6z"/>
	<path fill="#E0E0E0" d="M536,444.4c-4.8-15.4-6.8-31.6-5.5-47.7c1.3-16.6,6.3-31.8,12.6-47.1c0.1-0.3-0.3-0.4-0.4-0.2
		c-10.5,17.2-14.3,38.9-14,58.8c0.4,20.5,5.6,40.5,15.3,58.6c10,18.7,26.2,39.1,20,61.6c-6.4,23.4-33.2,35.7-55,24.5
		c-6-3.1-11.5-8-13-14.8c-1.6-7.2,2-13.9,8.8-16.4c4.8-1.8,10.4-1.6,15.2,0.4c3.5,1.5,7.3,4.2,8.5,8c1.5,4.5-3,10.9-8,7.6
		c-1.2-0.8-2.4,1.2-1.2,2c7.4,4.9,14.1-5,11-11.8c-4.1-8.9-16.4-11.9-25.1-9.4c-10,2.8-15,12.8-11.7,22.7
		c3.7,11,15.7,17.1,26.6,18.6c24.4,3.3,47.2-16.2,47.7-40.8c0.3-13.1-5.6-25-12.1-36C548.3,470.4,540.4,458.4,536,444.4z"/>
	<path fill="#E0E0E0" d="M591.1,223.6c-15.4-6.6-33-2-48.3-8.5c-8.7-3.7-13.6-11.5-11-21c2.3-8.4,9.6-15.1,18.2-16.6
		c9.2-1.5,18.3,4.9,17.8,14.7c-0.3,5.4-4.9,10-10.5,9.2c-2.9-0.4-5.4-2.2-5.7-5.3c-0.3-3.2,1.6-6.6,5.1-6.9c1.2-0.1,1.3-2,0-1.9
		c-5.6,0.2-9.1,6.3-7.3,11.5c2.2,6.3,10.6,7.1,15.7,3.9c6-3.8,7-11.7,4.4-17.8c-2.9-6.9-9.7-10.7-17-10.3
		c-15.7,0.8-30.7,20.1-21,34.8c4.9,7.3,14.2,9.9,22.4,11c11.7,1.6,23.9,0.5,35.1,4.9c11.5,4.5,20.9,14,25.1,25.6
		c5,13.7,1.9,26.2-3.6,39c0,0.1,0.1,0.2,0.1,0.1c8.6-9.9,9.9-26.2,6.1-38.2C612.8,239.2,603.1,228.8,591.1,223.6z"/>
	<path fill="#E0E0E0" d="M52.9,375.4c-5,24.3,0.6,46.9,10.6,69.1c11.4,25.3,25.5,48.7,32.4,75.8c0.3,1.3,2.2,0.7,2-0.5
		C93,493,76.8,469.4,65.6,445c-6-13-10.8-26.9-12.2-41.2c-1.6-15.8,1.5-31.6,6.9-46.5c5.6-15.4,13.5-29.6,21.1-44
		c6.5-12.4,12.7-25.7,13.2-39.9c0.4-11.3-2.8-23.4-11-31.5c-8.5-8.5-21.3-11.1-33-9.3c-11.6,1.8-25.6,9.4-27.2,22.3
		c-1.2,9.6,6.1,20.7,16.4,19.9c0.4,0,0.5-0.7,0-0.7c-7-0.1-12.3-5.3-14.1-11.8c-1.9-6.8,0.5-13.5,5.3-18.5c9-9.4,24.4-12.2,36.7-9
		c13.1,3.5,21.5,14.2,24.1,27.2c2.7,13.7-1.3,27.3-7,39.7C73.6,326.3,58.4,348.6,52.9,375.4z"/>
	<path fill="#E0E0E0" d="M35.9,493.1c0.4,0.2,0.9-0.3,0.5-0.6c-6.6-5.4-12.9-10.2-17.9-17.1c-5-6.8-8.8-14.4-11.4-22.4
		c-5.8-17.8-5.3-36.8-0.8-54.9c9.7-39.3,35.9-70.6,56.5-104.4c4.1-6.7,8.4-14.6,7.2-22.7c-1-6.6-4.8-12.3-11.4-13.9
		c-0.2,0-0.2,0.2-0.1,0.3c10.5,3.6,11.6,16.1,8.2,25.1c-3.4,9.1-9.7,17.3-14.9,25.3c-10.8,16.4-22,32.6-31.3,50
		C4.7,387.2-5.6,422.7,6,455.6C11.1,470.1,21.4,486.5,35.9,493.1z"/>
	<path fill="#E0E0E0" d="M348.1,103.5c5.7,12.1-1.7,25.3-9.6,34.4c-7.2,8.3-15.8,15.1-25.1,20.9c-18.2,11.3-38.3,18.9-57.4,28.5
		c-38.5,19.4-75.1,48.2-89.1,90.7c-6.3,19.2-6.9,40.3-0.5,59.5c5.7,16.9,18.4,36.6,36.6,41.8c17.2,4.8,32.7-9.4,34.4-26.1
		c1.5-15.3-9.4-42.6-28.4-40.7c-17.7,1.7-24.2,31.9-7.3,39.4c6.2,2.7,15.4,1.4,17.7-5.8c1.9-6-1.8-13.4-8.2-14.2
		c-0.5-0.1-0.6,0.7-0.1,0.7c5.2,0.4,8.1,5.3,7.9,10.2c-0.2,5.9-5.8,9.3-11.4,9.1c-11.7-0.5-15.7-13.4-13-23.2
		c2.9-10.5,13.3-17.8,23.7-11.9c8.1,4.7,13.6,15.1,15.8,23.9c2.3,9.2,1.2,19.1-4.4,26.8c-5.8,8-15.5,12.3-25.2,9.8
		c-17.8-4.5-30-24.1-35.5-40.3c-12.2-36,1.1-73.9,25.2-101.7c24.7-28.4,58.2-44.4,91.6-60c16.4-7.6,32.9-16,46.3-28.3
		c11.3-10.3,24.9-27.7,16.3-43.5C348.4,103,348,103.2,348.1,103.5z"/>
	<path fill="#E0E0E0" d="M453.2,126.7c-6.5-1.6-13.7-0.5-20.2,2.6c2.2-4.8,5.5-9.3,9.9-12.1c0.2-0.1,0-0.4-0.2-0.3
		c-5.1,3.2-9.1,7.3-10.9,12.9c-9.5,4.8-17.1,13.6-18.2,23.7c-4.5,3.4-7.7,10.7-7.4,16c0,0.1,0.1,0.1,0.2,0c1.2-3,2.1-6.2,3.7-9
		c1.2-2.1,2.7-3.8,4.1-5.7c0.2,0,0.5,0,0.6-0.3c3.7-8.1,6.7-15.1,14.3-20.5c0.7-0.5,1.4-0.9,2.1-1.4c0,0.2-0.1,0.3-0.1,0.5
		c0,0.2,0.2,0.2,0.3,0c0.1-0.3,0.2-0.5,0.3-0.8c6.6-3.8,13.8-4.9,21.4-5.4C453.3,126.9,453.3,126.7,453.2,126.7z"/>
	<path fill="#E0E0E0" d="M371.2,216c-2.4,15.8-10.4,30.2-24.3,38.6c-13.8,8.4-31.6,5.9-43.7,17.6c-8.8,8.5-11.6,22.9-3.4,32.9
		c7.1,8.6,22.7,9.6,27.5-1.9c2.1-4.9,1.2-11.1-3.3-14.4c-4.5-3.3-11-3-14.8,1.2c-0.8,0.8,0.4,2.1,1.3,1.3c3.4-3.4,8.6-3.7,12.4-0.8
		c4.1,3.1,4.4,8.8,2,13.1c-4.9,8.9-17.3,7.3-23.2,0.6c-13-14.9,1.4-34.3,17-38.8c7.6-2.2,15.6-2.7,23-5.7
		c5.7-2.4,10.9-5.9,15.4-10.3c8.9-8.7,14.8-20.7,14.4-33.3C371.5,215.9,371.2,215.9,371.2,216z"/>
	<path fill="#E0E0E0" d="M288.6,286.8c-11.3,10.2-9.4,33.1,4.4,40.4c0.5,0.3,1.1-0.4,0.7-0.8c-5-5.2-9.4-9.8-10.7-17.2
		c-1.5-8.2,1.6-15.3,5.8-22.2C288.9,286.8,288.7,286.7,288.6,286.8z"/>
	<path fill="#E0E0E0" d="M385.3,232.1c-4.8,13.4-12.5,25.1-24.1,33.5c-12.5,9.1-26.2,11.8-41.3,12.8c-0.1,0-0.2,0.2,0,0.2
		c29.3,4.4,59.2-18.5,67.2-46C387.4,231.5,385.7,231,385.3,232.1z"/>
	<path fill="#E0E0E0" d="M392.3,259.1c-5.8,5.8-10.1,12.2-16.9,17.1c-6.3,4.6-13.2,7.1-20.2,10.4c-0.1,0,0,0.2,0,0.2
		c7.9-0.8,16.1-5.2,22.4-9.8c6-4.4,12.8-10.3,15.7-17.3C393.5,259.1,392.7,258.8,392.3,259.1z"/>
	<path fill="#E0E0E0" d="M363.7,301.1c-17,16.5-35.8,36.8-32.6,62.5c1.2,9.7,5.9,18.6,14.2,24c7.6,5,17.7,7,26.2,3.2
		c8.1-3.5,14.3-12.6,12.6-21.6c-1.5-8-9.3-15.2-17.7-13.8c-8.6,1.5-15.1,11.6-9.4,19.3c5,6.8,17,2.3,13.3-6.2c-0.4-1-2-0.3-1.7,0.7
		c1.7,5.7-5.6,8.6-9.2,4.8c-2.1-2.2-2.8-5.6-1.9-8.5c1.4-4.8,6.7-8.3,11.7-8.2c12.3,0.2,15.3,15.5,9.4,24
		c-11.2,16.3-35.2,7.3-42.3-7.9c-8.7-18.7,0.9-39.5,13-54.1c11.7-14.1,26.6-25.3,37.7-39.9c10.9-14.2,17.9-32.9,11.4-50.5
		c-0.3-0.8-1.6-0.5-1.3,0.4C406.6,258.7,382.8,282.6,363.7,301.1z"/>
	<path fill="#E0E0E0" d="M425.4,321.3c16.6-2.2,34.7-20.6,25.4-38c-9.9-18.5-34.4-11.7-47.8-1.9c-19.6,14.3-35.3,34.7-44.6,57
		c-0.1,0.3,0.4,0.6,0.6,0.3c6.1-13.2,13.9-25.6,23.6-36.5c9.5-10.6,21.3-21.5,34.8-26.5c13.4-5,33.7-0.3,33.5,17.2
		c-0.1,14.3-15.9,26.8-29.7,26.2c-11.2-0.5-14.9-11.6-8.2-20c3.2-4,8.4-7.3,13.6-5.7c3,0.9,6.2,3.3,6.2,6.8c0,3.8-4.4,6.5-7.8,5.1
		c-1.2-0.5-2,1.6-0.9,2.1c5.7,2.4,12.1-2.6,10.8-8.8c-1.7-8-11.5-9.3-17.7-5.9c-6.9,3.8-12.3,13.1-9.2,20.9
		C410.7,320.5,418.6,322.2,425.4,321.3z"/>
	<path fill="#E0E0E0" d="M397.4,304.2c-6.4,3.1-11.5,9.8-15.1,15.8c-3.5,5.9-7.3,13.7-7.1,20.7c0,0.4,0.5,0.5,0.7,0.1
		c2.7-6.8,4-13.5,7.9-19.9c3.9-6.3,9.2-10.7,14-16.2C398,304.5,397.7,304.1,397.4,304.2z"/>
	<path fill="#E0E0E0" d="M391.6,350.2c0.1,0.4,0.7,0.3,0.7-0.1c0.3-4.1,0.2-8.1,1.4-12.1c1.1-3.9,3.1-7.6,5.2-11.1
		c0.2-0.3-0.3-0.7-0.5-0.4C392.7,332.3,389.2,342.2,391.6,350.2z"/>
	<path fill="#E0E0E0" d="M445.9,426.1c12.2,0.5,25.3-4.8,33.3-14.2c7.4-8.7,9.4-21.7,2.3-31.3c-6.3-8.5-21-10.5-27.9-1.6
		c-7.4,9.6,0.7,25.4,13.3,20.4c1.5-0.6,0.8-3-0.7-2.4c-9.6,3.7-16.3-7.6-11.1-15.5c3.6-5.5,11.4-7.1,17.4-4.9
		c14.3,5.1,12.4,24.3,4.1,33.7c-8.6,9.7-23.5,14.8-36.2,12.1c-13.2-2.7-20.7-14.4-21-27.4c-0.4-14.3,7.4-26.8,16.1-37.5
		c8.9-11.1,18.6-21.6,28-32.4c14.5-16.6,34.2-35.5,24.2-59.5c-9.5-22.6-38.4-28.1-55.8-11c-0.2,0.2,0.1,0.4,0.3,0.3
		c11.9-10.4,31.4-11.5,43.7-1.1c11.9,10,14.9,26.9,8.1,40.6c-3.5,7.2-9,13.3-14.2,19.4c-5.9,6.8-11.8,13.6-17.7,20.4
		c-10.2,11.7-21.7,23.2-29.1,37c-5.9,11.1-8.5,24.4-3.9,36.5C423.4,419.1,433.9,425.6,445.9,426.1z"/>
	<path fill="#E0E0E0" d="M467.7,187.3c7.2,22.2,20.5,42.1,34.7,60.2c0,0,0.1,0,0,0c-10-14-18.7-29.5-26.2-45.1
		c-7.7-16.1-14.4-34.9-6.7-52.3c3.4-7.6,9.4-14.1,17.8-16.1c9.3-2.2,18.3,2.4,19.8,12.4c1.2,8-3,18.5-11.8,20.2
		c-4.3,0.8-9.5-1.1-11.6-5.1c-3.1-5.9,3.2-12.9,9.3-10.6c1.5,0.6,2.1-1.8,0.6-2.4c-5.5-2.1-11.6,1.6-13.1,7.2
		c-1.6,5.9,2.9,11.4,8.3,13.1c15.3,4.9,24.2-14.8,19.4-27c-5.7-14.2-24-12.5-33.4-3.2C462.1,151.2,462.6,171.4,467.7,187.3z"/>
	<path fill="#E0E0E0" d="M434.8,191.9c0.2-0.1,0-0.4-0.2-0.3c-13.7,6-20.9,22.9-13.5,36.5c6.8,12.4,23.5,15.1,33.6,5.2
		c8-7.9,13.1-28.3-1.7-32.2c-6-1.6-12.1,1.6-15.2,6.7c-2.8,4.6-5.4,10.5-0.3,14.3c4.3,3.2,12.1,4.1,14.1-2.3c1.1-3.7-2.2-12.3-7-9.6
		c-1.2,0.6-0.1,2.5,1,1.8c3.2-2,3.7,5.1,3.7,6c-0.2,3.6-3.3,5.4-6.7,4.6c-5.1-1.1-7-5-4.8-9.8c2.7-5.7,7.5-11.1,14.6-9.2
		c14,3.9,5.9,24.1-2,29.9c-10.5,7.7-25,1.5-28.9-10.3C417.2,210.5,424.7,198.9,434.8,191.9z"/>
	<path fill="#E0E0E0" d="M345.7,147.8C345.7,147.7,345.6,147.7,345.7,147.8c-15.9,20.9-39,33.5-62.2,44.5
		c-22.3,10.6-45.9,20.7-62,40.2c-0.6,0.8,0.4,1.8,1.1,1.1c18.1-19.5,42.4-30.7,66-42C310.3,181.2,333,169,345.7,147.8z"/>
	<path fill="#E0E0E0" d="M396.4,141.5c-6.2-7.4-19.9-11.3-29.2-11.4c-0.2,0-0.3,0.4-0.1,0.4c4.9,1,9.8,1.9,14.4,3.7
		c5.2,2,9.4,5.6,14.4,7.8C396.4,142.2,396.7,141.8,396.4,141.5z"/>
	<path fill="#E0E0E0" d="M430.6,108.9c5.1-4.7,10.8-6.7,16.8-9.7c0.3-0.2,0.2-0.7-0.2-0.7c-12.8,1.6-24.5,14.5-28,26.3
		c0,0,0.1,0.1,0.1,0C422.1,118.9,425.7,113.3,430.6,108.9z"/>
	<path fill="#E0E0E0" d="M451.3,72c-3.8-2.4-9-1-12.7,0.6c-21,8.8-39.2,33.5-37.8,56.9c0,0.3,0.6,0.5,0.6,0.1
		c2.2-16.1,6.9-30.1,18.5-42c5.5-5.6,12-10.4,19.2-13.4c4.5-1.9,13.4-3.7,13.6,4.1c0.1,3.5-2.6,6.3-5,8.4c-1.1,1-2.3,1.8-3.5,2.7
		c-2.6,2-5.1,1.4-7.4-1.9c-0.1-1.3-2.2-1.4-2.1,0c1.1,11.9,16.5,0.3,18.9-4.9C455.2,78.9,454.9,74.3,451.3,72z"/>
	<path fill="#E0E0E0" d="M407.4,79.7c2.6-2.2,5.6-3.7,8.1-6c0.3-0.2,0-0.7-0.3-0.6c-6.5,1.7-12.5,8.5-16.2,13.8
		c-4.5,6.4-6.9,13.4-7.4,21.2c0,0,0,0,0,0c1.3-7,4-14,8-19.9C401.9,85,404.5,82.2,407.4,79.7z"/>
	<path fill="#E0E0E0" d="M412.4,239.3c-3.6,5.2-1.4,13.9,3.8,17.2c0.3,0.2,0.6-0.2,0.4-0.5c-1.9-2.3-3.5-4.8-4.1-7.7
		c-0.7-3.1,0-5.7,0.7-8.7C413.3,239.2,412.7,239,412.4,239.3z"/>
	<path fill="#E0E0E0" d="M465.5,291.6c4.2-9.1,0.7-20.2-7.5-25.6c-0.3-0.2-0.7,0.3-0.4,0.6c7.4,6.4,9.9,15.6,7.5,24.9
		C465,291.6,465.4,291.8,465.5,291.6z"/>
	<path fill="#E0E0E0" d="M184.6,275.4c-8.3,8.6-9.4,23.4-3.2,33.6c0.2,0.3,0.6,0.1,0.5-0.2c-3.9-11.7-2.5-22.2,3-33.2
		C185,275.5,184.7,275.3,184.6,275.4z"/>
	<path fill="#E0E0E0" d="M199,286c-2.6,3.8-2.6,11.1-0.3,15.1c0.2,0.3,0.7,0.2,0.7-0.2c-0.2-2.5-0.8-4.9-0.7-7.4
		c0-2.5,0.8-4.9,1-7.3C199.6,285.8,199.2,285.7,199,286z"/>
	<path fill="#E0E0E0" d="M269.5,294.3c-20.8,15-26.5,41.8-22.2,66c2,11.6,5.7,25.4,15.4,32.9c8.6,6.6,20.7,7.5,30.7,3.7
		c9.9-3.7,17.9-12,19.8-22.6c1.8-9.9-1.8-20.3-10.3-26c-8-5.4-18.8-5.8-26.4,0.4c-7.4,6-9.5,16.8-3.2,24.5
		c5.9,7.2,17.9,7.1,22.9-1.1c2.3-3.7,2.5-9.3-0.9-12.4c-2.9-2.7-7.2-2.6-9.8,0.3c-0.8,0.8,0.4,2,1.2,1.2c3.8-3.7,8.5-0.2,9.2,4.2
		c0.4,2.8-0.8,5.6-2.8,7.6c-3.6,3.6-9.7,4.8-14.2,2.3c-8.7-4.8-8.9-16.8-2.3-23.4c6.4-6.4,16.3-6.7,23.8-2.2
		c8.3,5,11.9,14.7,10.2,24.1c-3.3,17.7-23.7,27.4-40.1,21.5c-18.1-6.5-22.1-31.8-22.5-48.6c-0.4-19.4,6.8-38.7,22.5-50.8
		C271.4,295.2,270.3,293.7,269.5,294.3z"/>
	<path fill="#E0E0E0" d="M270.1,311.9c-4.9,6.6-5.6,15.3-3.1,23c0.1,0.2,0.4,0.2,0.4,0c-0.8-8,0.8-15.1,3.6-22.5
		C271.2,311.7,270.4,311.5,270.1,311.9z"/>
	<path fill="#E0E0E0" d="M327.9,320.1c-5.9,6.1-9.5,14.1-8.4,22.7c0.1,0.4,0.6,0.4,0.7,0c1.1-8.1,3.1-15.8,7.9-22.6
		C328,320.1,327.9,320,327.9,320.1z"/>
	<path fill="#E0E0E0" d="M243.4,170c16.9-8.3,33.9-16.3,49.3-27.3c13.4-9.5,26.7-21.8,33.5-37.1c6-13.4,2.9-27.2-9-35.9
		c-11.8-8.6-28-10.8-41.9-6.8c-13.4,3.8-24.3,14.8-25,29.2c-0.6,13.3,9.2,23.4,22,25.3c13.3,2.1,31.4-5.6,32.4-20.8
		c0.4-6.1-2.5-12.8-8.6-15c-5.5-2-11.9-0.1-14.5,5.3c-0.4,0.9,0.8,1.7,1.4,0.8c4.6-6.9,14.9-5,17.9,2.3c3.3,7.9-1.4,15.8-7.9,20.2
		c-10.2,7-26.6,6.9-35.4-2.5c-11.1-12-4.2-30.1,8.1-38c11.6-7.4,27.5-8.1,40.3-3.4c13.6,5,24.1,16.7,20.6,32
		c-3.4,14.5-15.5,27-26.5,36.3c-23.3,19.7-52.1,30.2-78.6,44.6c-25.8,14-50.8,33.4-60.3,62.3c-0.1,0.3,0.4,0.4,0.5,0.1
		C174.5,205.2,210.7,186.1,243.4,170z"/>
	<path fill="#E0E0E0" d="M415.1,351.5c-16.4,17.9-24.7,42.5-25.2,66.6c-0.3,12.3,1.6,24.7,5.6,36.4c4.6,13.2,12.4,25.2,16,38.9
		c4.1,15.5,1.1,31.8-12.9,41c-12.7,8.4-29.8,7.7-43.5,2.3c-12.3-4.8-23.4-14.4-26.8-27.5c-3.2-12.5,0.7-27.8,13-33.8
		c13.1-6.4,33.3,0.2,32.2,17.2c-0.5,8.9-10.1,16.2-18.6,11.1c-7-4.2-4.3-16.4,3.9-16.8c1.6-0.1,1.6-2.6,0-2.5
		c-10.1,0.4-14.4,14.6-6.4,20.8c10.6,8.2,24-2.2,23.7-14.1c-0.4-13.2-12.6-21.4-25.1-20.7c-13.3,0.7-23.3,10.6-25.7,23.5
		c-5.9,32.6,31,53.3,59.4,48.2c15.2-2.7,28.7-13.7,31-29.4c2.7-17.9-6.9-34.1-13.9-49.8c-16.5-37-9.7-78.5,14.4-110.6
		C416.7,351.7,415.7,350.9,415.1,351.5z"/>
	<path fill="#E0E0E0" d="M490.5,186.7c0-0.1-0.2-0.1-0.2,0c-2,6.7,0.9,16.6,3.1,23c2.4,7.1,6.3,15.3,12.3,20
		c0.5,0.4,1.2-0.1,0.9-0.7c-3.6-7.1-8.3-13.2-11.2-20.7c-1.3-3.3-2.3-6.8-3.1-10.3C491.5,194.3,491.7,190.3,490.5,186.7z"/>
	<path fill="#E0E0E0" d="M509.4,206c-2-3.8-3-7.8-4.1-11.9c-0.1-0.3-0.4-0.2-0.5,0.1c-0.4,7.4,4,18.1,10.8,21.7
		c0.4,0.2,0.9-0.2,0.6-0.6C514.1,212,511.3,209.4,509.4,206z"/>
	<path fill="#E0E0E0" d="M473.5,91.8c5.5,6.9,14.4,9.6,22.9,10.6c12.2,1.4,24.3,0.8,34.7,8.5c8.4,6.2,14.2,15.8,16,26.1
		c2.2,12.4-2.5,24.8-11.6,33.4c-9.1,8.6-21,12.1-33.3,11.5c-0.2,0-0.2,0.2,0,0.3c13,3.1,27-2.7,36.2-12c9.6-9.6,13.5-23.2,10.2-36.4
		c-3.1-12.4-11.8-23.6-23.6-28.7c-15.7-6.9-40.2,0.8-50.6-16c-6.5-10.6,3.1-24.6,15.4-20.8c6.5,2,11.8,9.6,8.1,16.2
		c-2.2,3.8-7.3,5.9-10.9,2.3c-4.1-4.2,0.5-11.4,5.9-8.1c1.1,0.7,2.1-1.1,1-1.7c-5.3-3.3-12.3,1.3-11.1,7.5
		c1.5,7.4,10.7,8.7,15.6,3.9c6-5.9,3.1-15.8-3.4-20c-6.6-4.4-15.7-3.5-21,2.6C468.5,76.9,468.5,85.6,473.5,91.8z"/>
	<path fill="#E0E0E0" d="M515.7,167.1c-0.5,0.3-0.3,1.1,0.3,1.1c7.2-0.3,13.6-7.1,15.8-13.5c2.6-7.6,0.5-16.4-5.2-22
		c-6.6-6.5-16.3-7.7-24.8-10.3c-11.7-3.6-20.8-10.1-31.1-16.4c-0.1,0-0.1,0-0.1,0.1c10.8,12.6,27.6,16.6,42.6,21.4
		c9.3,3,17.2,9.2,17.6,19.7c0.2,5-1.6,9.8-5,13.5C523,163.9,519.4,165.2,515.7,167.1z"/>
	<path fill="#E0E0E0" d="M504.8,274.8c-2.5,16.4-7.1,32.1-15.6,46.4c-4.3,7.3-9.4,14.1-15.3,20.2c-6,6.2-12.9,10.9-19.7,16
		c-0.3,0.2-0.1,0.7,0.3,0.5c14.6-7.3,27.1-21.6,35.6-35.3c8.8-14.3,14.7-31,14.8-47.8C504.9,274.8,504.8,274.7,504.8,274.8z"/>
	<path fill="#E0E0E0" d="M540.2,295.2c-12.7,8.4-22.7,19.5-30.4,32.6c-7.2,12.3-14.7,27.6-14.5,42.2c0,0.3,0.5,0.4,0.6,0.1
		c2-6.9,2.9-14,5.3-20.9c2.5-7.2,5.5-14.4,9.5-20.9c7.8-12.6,18.1-23.7,29.7-32.9C540.4,295.3,540.3,295.1,540.2,295.2z"/>
	<path fill="#E0E0E0" d="M467.3,456.2c-20.7-8.9-51.1-10.9-57.8-37.1c-0.1-0.5-1.1-0.5-1,0.1c1.6,11.8,11,20.5,21.1,25.8
		c13.6,7.1,29.4,8.6,42.8,16.2c12.6,7.1,24.5,23.3,15.3,37.6c-8.6,13.4-31.9,16.7-41.4,2.4c-5.2-7.9-4.2-19.3,5.4-23.2
		c4.1-1.7,9.4-1.6,12.7,1.8c3.6,3.7,3.6,9.2,0.4,13.1c-0.6,0.8,0.2,2,1.1,1.4c5.4-3.1,4.7-10.7,1.2-15.1c-3.9-4.9-10.9-5.6-16.4-3.2
		c-6.8,2.9-10.4,9.9-10,17.1c0.4,8,6.3,14.7,13.4,17.8c14.2,6.1,33.4-0.9,38.2-16.2C497.8,477.3,481.7,462.4,467.3,456.2z"/>
	<path fill="#E0E0E0" d="M463.9,436.4c6,0.7,11.5,1.8,16.8,4.9c5,2.9,7.8,7.1,11.8,11c0.4,0.4,1.3,0,1.1-0.6
		c-3.7-10.8-19.2-17.3-29.8-15.9C463.5,435.9,463.6,436.3,463.9,436.4z"/>
	<path fill="#E0E0E0" d="M526.3,506.8c-5.5-3.2-12.1-5-18.4-4.1c-0.4,0.1-0.2,0.6,0.1,0.6c6.6,0.4,12.5,1.6,18.2,5.2
		c5.4,3.5,7.8,8.4,11.9,13c0.4,0.4,0.9,0,0.8-0.5C537.8,515,531.3,509.8,526.3,506.8z"/>
	<path fill="#E0E0E0" d="M431.1,471.8c-6.3,14.3-1.7,37.9,11.4,47.2c0.3,0.2,0.7-0.2,0.5-0.5c-4.6-7-9.1-12.9-11.3-21.2
		c-2.4-8.7-1.5-16.6-0.1-25.3C431.6,471.7,431.2,471.5,431.1,471.8z"/>
	<path fill="#E0E0E0" d="M384.3,93.2c4.1-4.8,2.2-11.8-2.7-15.1c-1.4-0.9-2.7,1.3-1.3,2.2c5,3.4,4.9,11.4-1.4,13.3
		c-5.4,1.6-9.6-2.8-9.9-7.9c-0.5-7.5,5.6-14.6,10.2-19.9c9.1-10.5,20.9-18.6,33.8-23.8c12.2-4.9,25.8-7.3,38.9-5.8
		c7.4,0.9,16.1,3.5,19.8,10.6c3.4,6.5,2.2,14.1-4.2,18.2c-0.1,0.1,0,0.3,0.1,0.3c10.9-3.7,8.2-19.4,1.2-25.2
		c-11.3-9.4-29.9-7.4-43.1-4.5c-15.5,3.4-30.1,11-41.8,21.8c-8,7.4-24.4,24.1-14.7,35.8C372.8,97.6,380.3,97.8,384.3,93.2z"/>
	<path fill="#E0E0E0" d="M175.5,68.4c-0.2,11.4,5.2,22.3,16.1,26.7c10.2,4.1,22,0.9,28.8-7.7c7.1-9,7-24.1-5-28.9
		c-9.7-3.9-20.6,5.9-15.4,15.7c0.6,1.1,2.6,0.3,2.1-0.9c-2.1-5,0.5-11.1,5.9-12.7c7-2,13.5,4.1,14.5,10.7c1.9,12.3-9.7,23-21.5,23
		c-12.1,0.1-21.2-9.4-22.8-21c-1.4-10.1,2-20.3,7.6-28.7c10.7-16.1,29.5-25.8,48.3-28.1c23.6-3,47.3,3.7,68.6,13.4
		c22.4,10.1,43.7,26.5,46.5,52.7c0,0.1,0.2,0.2,0.2,0c1.2-28-25.1-45.7-47.9-55.7c-26-11.4-56.4-19.1-84-9.1
		C196.2,25.5,176,44.3,175.5,68.4z"/>
	<path fill="#E0E0E0" d="M261.7,51.6c-16.3,3.3-27.5,25.1-21.1,40.5c0.2,0.4,0.9,0.4,0.8-0.1c-0.7-9-0.9-16.7,3.7-24.9
		c3.9-6.8,10.1-11.2,16.6-15.3C261.9,51.7,261.8,51.5,261.7,51.6z"/>
	<path fill="#E0E0E0" d="M144.8,222.3c7,1.1,13.8-4.6,18.2-9.4c4.3-4.7,7.4-12.6,2.4-18.1c-3.8-4.1-11-2.9-12.6,2.5
		c-0.4,1.4,1.6,1.9,2.2,0.6c1.7-4.1,7-3.9,9.3-0.6c1.6,2.3,1.5,5.5,0.7,8.1c-1.6,4.8-6.3,9-10.4,11.7c-5.4,3.6-12.5,4.4-16-2.4
		c-2.7-5.3-0.8-11.3,1.8-16.2c7.7-14.8,22.2-24.7,37-31.3c15.7-7,32.4-10.6,48.9-15.1c15.2-4.2,32.6-8.8,44.9-19.2
		c0.3-0.2-0.1-0.6-0.4-0.5c-9.3,4.6-18.3,9-28.1,12.4c-9.1,3.1-18.4,5.4-27.7,7.8c-17.1,4.5-34.3,9.3-49.5,18.4
		c-12.6,7.5-28.5,20.5-30.3,36.1C134.4,213.6,137.8,221.1,144.8,222.3z"/>
	<path fill="#E0E0E0" d="M188,184.2c4.1-3.8,8.5-7,13.4-9.6c4.5-2.3,9.4-3.4,14-5.5c0.3-0.1,0.1-0.5-0.1-0.5
		c-10.2,0.4-20.8,8.1-27.9,15C187,183.9,187.6,184.5,188,184.2z"/>
	<path fill="#E0E0E0" d="M337,410.7c5.3,3.9,13.7,7.9,20.4,6.6c0.6-0.1,0.5-1,0-1.1c-3.2-0.9-6.5-0.9-9.6-2
		c-3.3-1.1-6.4-2.7-9.3-4.6c-5.9-4-10.7-9.8-13.7-16.3c-0.1-0.2-0.4-0.1-0.3,0.1C326.7,400.6,330.9,406.3,337,410.7z"/>
	<path fill="#E0E0E0" d="M294.3,444.8c13.7-8.8,31.6-8.5,46.9-5.3c14.6,3.1,28,10,37.8,21.4c0.4,0.4,1.1-0.1,0.8-0.6
		c-9.1-12.3-23.4-19.4-38.1-22.6c-15.6-3.5-33.8-3.8-47.9,4.8c-11.9,7.3-19.4,20.4-16,34.5c3,12.5,18.4,23.1,30.4,14.4
		c5.2-3.7,8.1-11.1,5.2-17.1c-2.7-5.6-9.4-8.7-15.2-6.3c-1.4,0.6-0.9,2.8,0.6,2.3c10.6-3.5,16.8,9.6,9.6,17.1
		c-6.5,6.8-17.4,4.4-23.1-2.1C273.7,472.3,281,453.4,294.3,444.8z"/>
	<path fill="#E0E0E0" d="M318.7,456.5c6.8-1.8,12-0.9,18.5,1.3c0.4,0.1,0.8-0.5,0.4-0.7c-5.3-4.1-13.4-4.1-19.2-1.1
		C318.1,456.1,318.3,456.6,318.7,456.5z"/>
	<path fill="#E0E0E0" d="M272.7,499c0.5,0.3,0.9-0.5,0.4-0.8c-38.1-21.6-83.3-10.2-124.6-16.9c-20.1-3.3-42.9-11.3-54.2-29.5
		c-6-9.7-6.5-21.1-0.3-30.7c5.6-8.6,15.4-14.7,25.8-15c12.5-0.4,26,7.7,25.9,21.4c0,6.5-3.5,12.8-10,14.7c-5.5,1.6-11.8,0-15.2-4.8
		c-1-1.4-3.3-0.1-2.3,1.4c4.7,7.2,14.6,8.9,22,4.7c8.3-4.8,10.1-16.1,6.7-24.5c-8.5-20.9-37.7-18.5-51-4.4
		c-7.2,7.7-10.7,18.2-8,28.5c2.8,10.9,11,19.6,20.1,25.8c20.7,14.2,46.7,16.7,71.1,17C210.5,486.2,244,483.3,272.7,499z"/>
	<path fill="#E0E0E0" d="M205,399.6c-15.4-1.1-29.1,11.8-29.6,27.1c-0.6,17.2,13.1,27.8,28.5,31.5c9.3,2.2,18.9,2.5,28.4,3.6
		c11.6,1.3,20.9,4.6,29.8,12.1c0.2,0.2,0.6-0.1,0.4-0.3c-6.3-9-19-12.1-29.2-13.7c-13-2.1-26.6-1.6-38.8-7.3
		c-13.9-6.5-21.4-23.3-13.3-37.3c7.2-12.4,26.3-18.3,37-6.7c5.5,5.9,6.2,17.5-1.2,22.4c-6.4,4.3-14.5,1.3-18.2-4.8
		c-0.6-0.9-2-0.3-1.8,0.7c2.9,12.8,21.5,11.2,26.7,1.1C230.7,414.3,218.8,400.6,205,399.6z"/>
	<path fill="#E0E0E0" d="M178.1,466.1c0.7-0.2,0.8-1.4,0-1.5c-7.5-1.4-14.6-2.7-18.9-9.9c-4.3-7.4-2.4-15.4,1.6-22.4
		c0.2-0.4-0.3-0.7-0.6-0.5c-6.3,5.7-7.1,16-3.3,23.4C160.5,462.2,169.9,468.7,178.1,466.1z"/>
	<path fill="#E0E0E0" d="M267.8,418.6c0.7,0,0.9-0.9,0.3-1.3c-7.3-4.2-14.2-7-19.7-13.8c-6.1-7.5-7.7-16.1-8.9-25.5
		c0-0.1-0.2-0.2-0.3,0C235.8,394.4,250.1,417.6,267.8,418.6z"/>
	<path fill="#E0E0E0" d="M354.3,204.9c-4.2,7.3-7,14.2-13.8,19.7c-7.5,6.1-16.1,7.7-25.5,8.9c-0.1,0-0.2,0.2,0,0.3
		c13.5,2.8,31.7-6.5,38.2-19.8c0.1,3.5,0.1,6.8-1.1,10.3c-1.7,5-5.2,8.2-8.4,12.3c-0.1,0.2,0,0.4,0.2,0.3
		c7.7-3.7,12.1-16.4,10.1-24.8c0.9-2.2,1.4-4.5,1.5-6.9C355.6,204.5,354.6,204.3,354.3,204.9z"/>
	<path fill="#E0E0E0" d="M304,422.8c0.6-0.1,0.5-1.2-0.1-1.1c-10.9,1.3-21.1,5.1-30,11.4c-5.6,4-16.8,12.4-12.3,20.5
		c0.3,0.5,1,0.1,0.9-0.4c-2.4-10.2,9.9-18.1,17.6-22.4C287.4,426.7,295.5,424,304,422.8z"/>
	<path fill="#E0E0E0" d="M97,323c0.3-0.5-0.5-1-0.8-0.5C88.5,333,84,345.5,81.9,358.2c-1.8,11-2.8,25.1,1.8,35.6
		c0.2,0.5,1,0.2,1-0.3c-0.2-6-1.6-11.8-1.7-17.9c-0.1-6.2,0.3-12.4,1.3-18.5C86.4,345,91.1,333.8,97,323z"/>
	<path fill="#E0E0E0" d="M109.4,316.2c-10.1,14.5-6.9,34.3,1.9,48.5c11.4,18.5,31.2,28.5,51.2,34.7c0.5,0.1,0.6-0.6,0.2-0.7
		c-16.9-6-33.8-14.7-45.2-28.9c-10.8-13.6-16.8-33.6-7.8-49.7c4.5-8,12.9-13.8,22.3-13.4c9.3,0.4,16.8,7.5,19.4,16.1
		c2.7,9-0.1,20.6-9.8,24c-10.3,3.5-21.1-7.5-13.3-16.8c0.9-1.1-0.5-2.7-1.6-1.6c-4.3,4.2-4.4,11-1.2,15.9c3.8,5.8,11.3,7.1,17.4,4.7
		c15-5.7,14.6-26,5.5-36.6C137.6,299.6,118.4,303.2,109.4,316.2z"/>
	<path fill="#E0E0E0" d="M184,381.1c-7.2-1.5-14-2.4-20.7-5.7c-6.7-3.2-11.9-7.9-17.4-12.7c0,0-0.1,0-0.1,0.1
		c7.4,11.2,24.6,20,38.1,19.1C184.3,381.9,184.5,381.2,184,381.1z"/>
	<path fill="#E0E0E0" d="M225.2,442.5c-0.1,0-0.1,0.2,0,0.2c4.2,0,8.9,0.7,12.9,1.9c4.3,1.3,7.6,3.8,11.5,5.9c0.7,0.3,1.2-0.5,0.8-1
		C244.4,442.6,233.6,441,225.2,442.5z"/>
	<path fill="#E0E0E0" d="M240,423.9c-0.2-0.2-0.6,0.1-0.4,0.3c1.3,2.4,3,4.2,5.2,5.8c1.9,1.4,4.7,3.3,7.1,3.1c0.4,0,0.7-0.5,0.3-0.8
		c-1.7-1.4-4.1-2-6-3.3C243.9,427.7,241.9,425.8,240,423.9z"/>
	<path fill="#E0E0E0" d="M52.5,174.6c-15.7,0.8-30.7,20.1-21,34.8c4.9,7.3,14.2,9.9,22.4,11c11.7,1.6,23.9,0.5,35.1,4.9
		c11.5,4.5,20.9,14,25.1,25.6c5,13.7,1.9,26.2-3.6,39c0,0.1,0.1,0.2,0.1,0.1c8.6-9.9,9.9-26.2,6.1-38.2c-4-12.5-13.6-23-25.7-28.1
		c-15.4-6.6-33-2-48.3-8.5c-8.7-3.7-13.6-11.5-11-21c2.3-8.4,9.6-15.1,18.2-16.6c9.2-1.5,18.3,4.9,17.8,14.7
		c-0.3,5.4-4.9,10-10.5,9.2c-2.9-0.4-5.4-2.2-5.7-5.3c-0.3-3.2,1.6-6.6,5.1-6.9c1.2-0.1,1.3-2,0-1.9c-5.6,0.2-9.1,6.3-7.3,11.5
		c2.2,6.3,10.6,7.1,15.7,3.9c6-3.8,7-11.7,4.4-17.8C66.6,178,59.8,174.2,52.5,174.6z"/>
	<path fill="#E0E0E0" d="M129.9,285.1c3.8-1.4,7.7-1.9,11.6-0.8c4.1,1.1,6.8,3.7,10,6.2c0.4,0.3,1.2,0,0.9-0.5
		c-3.4-8.3-16-10.1-23.1-6.1C128.6,284.2,129.1,285.4,129.9,285.1z"/>
	<path fill="#E0E0E0" d="M111.5,215c-0.1,0-0.2,0.1-0.1,0.1c6.5,5,12.6,10.7,17.2,17.6c4.7,7.1,7,14.8,9.4,22.8
		c0.1,0.3,0.5,0.2,0.5-0.1C138.3,239.1,126,221.8,111.5,215z"/>
	<path fill="#E0E0E0" d="M16.3,79.5c12.1,3.6,25,7.1,35.3,14.7c10,7.4,15.3,18.5,18.5,30.2c5.3,19.7,5.6,43.2,20.6,58.7
		c7.3,7.6,18.7,12.4,29.1,8.6c9.6-3.5,16.3-12.8,18.2-22.6c2-10.1-1.6-21-10.5-26.6c-7.9-5-18.9-3.9-25.1,3.4
		c-6.2,7.3-4.5,19.6,4,24.3c8.2,4.6,19.3-1.2,20.3-10.4c0.2-1.5-2.4-1.9-2.7-0.4c-2.5,11.9-18.8,12.1-21.9,0.3
		c-2.9-11.2,8.8-19.8,19.2-16.9c25.1,6.9,14.5,47.4-9.2,47.6c-20.4,0.2-29.7-22.5-33.5-38.9c-3.6-15.4-4.9-32.1-13.3-46
		C54.8,88.2,35.1,82.6,16.5,78.9C16.1,78.8,15.9,79.4,16.3,79.5z"/>
	<path fill="#E0E0E0" d="M59.5,133.3c-1.5,7.1-1.2,16.4,1.9,23c0.2,0.4,0.9,0.2,0.8-0.2c-0.4-3.8-1.4-7.4-1.7-11.3
		c-0.3-3.8-0.1-7.6,0-11.4C60.4,132.9,59.6,132.8,59.5,133.3z"/>
	<path fill="#E0E0E0" d="M179.1,148.3c-0.1,0-0.1,0.3,0,0.3c9.2-0.7,18.4-3.3,27.2-5.6c9.6-2.6,19-5.5,28.2-9.3
		c0.2-0.1,0.1-0.3-0.1-0.3c-9.1,2.9-18.2,5.9-27.5,8.4C197.8,144.2,188.3,145.7,179.1,148.3z"/>
	<path fill="#E0E0E0" d="M143.1,139.7c-4.7-7.6-16.5-11-24.9-11.2c-10-0.2-19.4,3.8-26.5,10.7c-0.3,0.3,0.2,0.7,0.5,0.5
		c7.1-6.3,16.4-10,26-9.6c4.8,0.2,9.6,1.4,13.9,3.5c3.8,1.8,6.8,4.7,10.4,6.8C142.9,140.5,143.4,140.1,143.1,139.7z"/>
	<path fill="#E0E0E0" d="M101.4,105.7c13.7,7.9,30.6,5.5,44.8,12.3c7.6,3.7,13.7,10.3,14.2,19.1c0.5,8.7-4,15.9-8.7,22.8
		c-0.2,0.3,0.2,0.6,0.5,0.4c13.9-11.2,13.5-33-1.8-42.5c-17.5-10.9-41.6-4.4-56.2-20.9c-13.6-15.4-12.5-40.2,4.7-52.3
		c15.9-11.3,45.3-9.5,51.2,12.7c1.7,6.6,0.2,14.6-5.2,19.1c-5.1,4.3-13.4,5.2-18.6,0.6c-4.8-4.3-6-13.2-0.4-17.5
		c4.9-3.7,12.4-2.1,15.2,3.3c0.7,1.5,2.9,0.2,2.2-1.3c-3.6-7.2-14.2-8.9-20-3.4c-6.6,6.2-4.1,18.1,3.3,22.5
		c8.7,5.2,20.5,0.3,24.7-8.4c5-10.3,0.8-22.2-7.6-29.3c-16.5-13.9-43-8.8-55.1,8.6C76.5,69.1,83.3,95.3,101.4,105.7z"/>
	<path fill="#E0E0E0" d="M229.1,104.8c-3.6,1.5-6.6,4.1-10.2,5.8c-4.6,2.1-9.5,3.2-14.5,3.5c-9.8,0.5-18.5-3.2-26.5-8.6
		c-0.2-0.1-0.4,0.1-0.2,0.3c7,6.9,16.9,10.4,26.7,10.5c8.3,0,20.7-2.9,25.6-10.3C230.3,105.4,229.7,104.5,229.1,104.8z"/>
	<path fill="#E0E0E0" d="M135.1,93.8c9.7,4.1,18.3,7.8,25.9,15.3c3.7,3.7,6.8,7.9,9.2,12.5c2.6,4.9,3.5,10.1,5.4,15.3
		c0.2,0.4,0.8,0.4,0.8-0.1c0.1-10.1-7.2-21.1-13.8-28.2C155.8,101.1,145.5,94.1,135.1,93.8C135.1,93.7,135.1,93.8,135.1,93.8z"/>
	<path fill="#E0E0E0" d="M166.5,62.9c2-5.9,2.2-12.5,4.3-18.5c2.2-6.2,5-12,8.6-17.5c7.6-11.5,17.8-19.3,29.5-26.2
		c0.4-0.2,0.1-0.8-0.3-0.7c-12.4,4.6-23.1,14.5-30.5,25.3c-3.9,5.7-7.2,12-9.4,18.5c-1.9,5.7-4.3,13-3.1,19
		C165.7,63.3,166.3,63.3,166.5,62.9z"/>
	<path fill="#E0E0E0" d="M78.7,107.3c4.4,4.9,11.6,12.3,18.4,13.3c0.5,0.1,1-0.5,0.5-0.9c-2.2-2.1-5.2-3.2-7.7-4.9
		c-3.3-2.2-6.3-4.7-9-7.6c-5.2-5.5-9.4-12.1-11.9-19.3c-2.6-7.4-3.7-15.5-2.9-23.3c0.8-8.4,4.5-15.6,7.4-23.4c0,0-0.1-0.1-0.1,0
		c-10.4,11.8-10.7,33-5.9,47.2C70,95.3,73.8,101.8,78.7,107.3z"/>
	<path fill="#E0E0E0" d="M155.4,511.3c0.4-0.2,0.5-0.8,0-0.9c-3.4-0.6-7-0.1-10.5-0.5c-4.8-0.5-9.5-1.7-14-3.6
		c-8.4-3.4-14.9-9-21-15.6c-0.1-0.1-0.3,0-0.2,0.2c4.5,7.7,12.2,13.6,20.3,17.2C136.9,511.1,148,514.3,155.4,511.3z"/>
	<path fill="#E0E0E0" d="M125.8,523.7c5.9,1.8,11.5,3,16.8,6.5c5.2,3.5,8.5,8.2,12.3,13c0.3,0.4,1,0,0.9-0.5
		c-3.5-11-18.4-20.9-29.9-19.3C125.7,523.4,125.7,523.6,125.8,523.7z"/>
	<path fill="#E0E0E0" d="M279.3,220.5c-2.8,3.3-4.8,8.2-4.3,12.5c0,0.2,0.4,0.3,0.5,0.1c0.5-2,0.7-4.1,1.3-6
		c0.7-2.2,1.8-4.2,2.9-6.3C279.9,220.6,279.5,220.3,279.3,220.5z"/>
	<path fill="#E0E0E0" d="M261.7,251.8c0,0.3,0.4,0.3,0.5,0c0.7-6.8,1.3-13.1,3.5-19.6c0-0.1-0.1-0.1-0.1-0.1
		C262.8,238.1,260.9,245.1,261.7,251.8z"/>
	<path fill="#E0E0E0" d="M270.8,248.7c0-0.2-0.3-0.2-0.4,0c-1.6,4.1-2.5,11-0.8,15.2c0.2,0.4,0.9,0.6,1,0c0.4-2.3-0.1-4.7-0.1-7.1
		C270.6,254.1,270.9,251.4,270.8,248.7z"/>
	<path fill="#E0E0E0" d="M254.5,261.6c-0.9,3.2-0.4,9.1,2,11.6c0.4,0.4,1,0.1,1-0.4c0.1-1.8-0.7-3.5-1-5.3c-0.4-1.9-0.4-3.9-0.9-5.9
		C255.5,261.1,254.7,261.1,254.5,261.6z"/>
	<path fill="#E0E0E0" d="M245.3,265.3c-0.1,0-0.2,0.1-0.1,0.1c0.3,1.2,1.2,2,2,2.9c0.8,0.8,1.6,1.9,2.7,2.3c0.2,0.1,0.3-0.1,0.3-0.3
		c-0.3-1.1-1.4-2-2.2-2.8C247.1,266.6,246.5,265.7,245.3,265.3z"/>
	<path fill="#E0E0E0" d="M240,275.5c0.1,0.3,0.5,0.2,0.5-0.1c0.2-3.8,0-7.9,1.2-11.6c0-0.1-0.1-0.1-0.1,0
		C240.2,267.7,239.1,271.3,240,275.5z"/>
	<path fill="#E0E0E0" d="M216.4,270.2c-2.8-2.1-6.3-4.7-9.9-5.2c-0.2,0-0.3,0.2-0.2,0.3c2.5,2.2,5.8,3.5,8.5,5.3
		c3,2.1,5.4,5.1,8.5,7.1c0.3,0.2,0.7-0.2,0.5-0.5C222.3,274.4,219,272.2,216.4,270.2z"/>
	<path fill="#E0E0E0" d="M228.5,287.5c-0.4-0.3-1,0.2-0.6,0.6c0.8,0.7,1.5,1.4,2.1,2.2c0.6,0.8,1,1.6,1.6,2.3c0.2,0.2,0.5,0,0.5-0.3
		C231.7,290.4,230,288.7,228.5,287.5z"/>
	<path fill="#E0E0E0" d="M233.9,268.1C234,268.1,234,268,233.9,268.1C233.8,268,233.8,268.1,233.9,268.1z"/>
	<path fill="#E0E0E0" d="M307.8,235.8C307.7,235.8,307.7,235.8,307.8,235.8c1.1,2.5,2.5,4.3,4.8,6c1.7,1.2,4.2,3.2,6.5,2.9
		c0.3,0,0.3-0.4,0.2-0.6c-1.4-1.5-3.9-2-5.6-3.3C311.5,239.4,309.5,237.6,307.8,235.8z"/>
	<path fill="#E0E0E0" d="M310.3,224.9c1.2,2,2.2,4,3.8,5.7c0.1,0.1,0.4,0,0.4-0.2c-0.9-2.1-2.3-3.9-3.6-5.8
		C310.6,224.3,310.1,224.6,310.3,224.9z"/>
	<path fill="#E0E0E0" d="M313.5,205.5c-0.2,0.3,0.2,0.6,0.5,0.4c4.1-3.9,8.4-6.9,14.3-7c5-0.1,8.3,2.4,12.7,4.2
		c0.4,0.2,0.8-0.4,0.6-0.7C334.9,193.4,318.8,197.1,313.5,205.5z"/>
	<path fill="#E0E0E0" d="M310.8,196c-0.1,0.1,0,0.2,0.1,0.1c4.9-3.1,9.4-4.7,15.3-5.2c0.3,0,0.4-0.4,0.1-0.5
		C320.7,189.4,314.4,191.6,310.8,196z"/>
	<path fill="#E0E0E0" d="M350.6,195.3c3.3,4.3,5.8,9.1,8.2,13.9c0.1,0.1,0.3,0,0.3-0.1c-1.9-5.1-4.8-9.6-8-14.1
		C350.9,194.6,350.4,195,350.6,195.3z"/>
	<path fill="#E0E0E0" d="M342.4,212.5c-0.9,2.4-1.1,4.9-2.3,7.3c-1.1,2.1-3.1,3.7-4.1,5.8c-0.2,0.4,0.1,1,0.6,0.8
		c2.4-0.8,4.3-3.8,5.4-6c1.2-2.3,2.4-5.3,2-8C343.8,211.7,342.6,211.9,342.4,212.5z"/>
	<path fill="#E0E0E0" d="M338.8,232.4c-8.2,3.3-14,7.5-22.9,3.2c-0.2-0.1-0.5,0.2-0.3,0.4c6.3,6.7,17.7,1.7,23.5-3.1
		C339.3,232.7,339.1,232.3,338.8,232.4z"/>
	<path fill="#E0E0E0" d="M335.7,245.9c1.2-0.4,2.4-0.7,3.4-1.4c0.2-0.2,0-0.5-0.2-0.5c-1.4,0.1-2.7,0.9-3.9,1.4
		c-1.3,0.5-2.5,1.2-3.8,1.8c0,0,0,0.1,0,0.1C332.8,246.8,334.3,246.4,335.7,245.9z"/>
	<path fill="#E0E0E0" d="M371.8,147.6c-0.1,0-0.1,0.2,0,0.2c3.1,1.1,6.2,2.5,9,4.1c2.6,1.5,4.9,3.5,7.6,4.8c0.3,0.2,0.7-0.2,0.5-0.5
		C385.8,150.4,378,147.9,371.8,147.6z"/>
	<path fill="#E0E0E0" d="M356.2,163.6c0.9,0.4,1.8,0.7,2.8,1c-5.3,2.4-10,5.6-13.3,9.5c-0.3,0.3,0.1,0.9,0.5,0.6
		c5.1-3.4,9.8-6.8,15.3-9.3c4.5,1.5,9,2.8,13.3,5.4c3,1.9,5.9,3.9,8.5,6.3c0.8,0.8,1.6,1.6,2.4,2.4c-1.2,6.6,1.8,14.1,8.9,15.4
		c4.8,0.9,9.4-1.9,13-4.8c5.1-4.1,9.4-9.5,15.4-12.3c6.2-2.9,13.7-3.1,20-0.3c7.4,3.3,11.3,9.3,14.4,16.4c0,0,0.1,0,0.1,0
		c-0.7-7.3-6.7-14-13.1-17.1c-6.6-3.2-14.5-3.3-21.2-0.4c-4.8,2.1-8.5,5.8-12.3,9.3c0.7-2.6,0.6-5.5,1.5-8.1c1-3.2,2.5-6.1,4.4-8.8
		c0.3-0.5-0.4-1.1-0.8-0.6c-3.5,4.5-7.8,12.2-6.1,18.1c0,0.1,0.1,0.2,0.1,0.2c-2.7,2.4-5.4,4.7-8.8,6.1c-4.8,2.1-9.9,1.1-12.7-3.6
		c-1.5-2.5-2.1-5.5-1.7-8.3c0.7,0.6,1.5,1.2,2.4,1.7c0.4,0.2,0.9-0.1,0.7-0.6c-0.5-1.4-1.3-2.8-2.4-4.1c0.3-0.9,0.8-1.7,1.3-2.5
		c1-1.5,2.3-2.5,3.8-3.2c2.5,2.5,4.9,5.1,7.2,7.8c0.1,0.2,0.4,0,0.3-0.2c-1.8-2.9-4-5.6-6.6-7.9c2.7-0.8,5.8-0.3,8,2
		c2.1,2.2,2.1,5.8-0.3,7.8c-1.3,1-3,1.3-4.3,0.3c-1.4-1.1-2-3.2-0.8-4.7c0.4-0.5-0.3-1.3-0.8-0.7c-2.1,2.3-1,6.1,1.8,7.3
		c3.4,1.5,6.9-1.6,7.6-4.8c0.8-3.9-2-7.3-5.5-8.6c-2.4-0.9-4.9-0.8-7.1,0.2c-1.3-1.1-2.7-2.1-4.2-3c-0.1,0-0.1,0.1-0.1,0.1
		c1.2,1.1,2.3,2.2,3.5,3.3c-1.1,0.6-2,1.4-2.9,2.3c-0.9,1-1.5,2.2-2,3.4c-3.1-3.2-7.5-5.8-10.7-7.5c-3.4-1.8-7.3-3.7-11.4-4.8
		c0.1,0,0.2-0.1,0.4-0.1c7-2.5,14-2.8,21.3-3.4c0,0,0.1-0.1,0-0.1c-7.4-1.5-16.5-0.3-24.6,2.9c-1.8-0.3-3.5-0.4-5.2-0.3
		C356,163.2,356,163.5,356.2,163.6z"/>
	<path fill="#E0E0E0" d="M364.5,151.8c1.2,0.8,2.5,2.2,3.9,2.5c0.4,0.1,0.7-0.2,0.6-0.6c-0.4-1.5-2.4-2.6-3.6-3.3
		c-1.6-0.8-3.3-1.6-5.1-1.5c-0.3,0-0.5,0.4-0.2,0.6C361.5,150.4,363.1,150.9,364.5,151.8z"/>
	<path fill="#E0E0E0" d="M421.6,164.6c-0.2,0-0.4,0.1-0.2,0.3c0.8,1.3,2.3,2.1,3.3,3.3c1,1.1,1.7,2.9,3,3.6c0.2,0.1,0.6,0,0.6-0.3
		c0-1.5-1.5-3-2.5-4C424.7,166.3,423.2,164.8,421.6,164.6z"/>
	<path fill="#E0E0E0" d="M449.8,130.5c0.1-0.1-0.1-0.3-0.2-0.2c-5.2,3-8.5,8.3-10.2,14.2c-2.5-0.2-5.1,0.5-7.3,2.1
		c1.2-5.2,3-10,6.2-14.8c0,0,0-0.1-0.1-0.1c-4.1,4.7-7.3,10.7-8.3,17c-1.8,2.4-3,5.8-3,8.9c-0.2-0.3-0.4-0.5-0.7-0.8
		c-2.2-2.6-4.5-5.2-6.8-7.7c-0.1-0.2-0.4,0.1-0.3,0.2c2,2.7,4.1,5.5,6.1,8.2c0.7,0.9,1.4,2,2.2,2.9c0.5,1.3,1.5,2.4,3,3.1
		c0.1,0.1,0.2,0.2,0.4,0.3c0.1,0.1,0.2,0,0.3,0c0.2,0.1,0.4,0.1,0.7,0.2c3.1,0.8,6.2-0.8,7.8-3.5c1.4-2.3,2.8-5.4,0.2-7.3
		c-0.2-0.2-0.5-0.3-0.8-0.5c0.3-2.3,0.8-4.6,1.5-6.8c3.3,0.8,6.3,3.3,7.4,6.8c2.2,6.5-1.7,12.4-6.9,16c-0.1,0.1,0,0.2,0.1,0.1
		c7-3.1,10.7-11.7,6.9-18.7c-1.6-2.9-4.2-4.8-7.2-5.4c0-0.1,0.1-0.3,0.1-0.4C443.1,139.1,446.6,135.2,449.8,130.5z M439.6,158.1
		c-0.3,0.5-0.6,1.1-0.9,1.6c-0.1-2,0-3.9,0.2-5.9C440.1,154.8,440.5,156.3,439.6,158.1z M437.9,152.4c-2.1-0.7-4.6-0.4-5.4,2.1
		c-0.6,1.9,1.1,6.3,3.6,4.9c0.6-0.3,0.1-1.3-0.5-0.9c-1.7,1-1.9-2.6-1.9-3.1c0.1-1.9,1.7-2.8,3.4-2.4c0.2,0.1,0.5,0.1,0.7,0.2
		c-0.1,2.5,0,4.9,0.3,7.2c-1.4,1.8-3.4,3.1-6,2.4c-0.6-0.2-1.2-0.4-1.7-0.7c-0.6-0.9-1.3-1.8-2-2.7c-0.6-2.2,0-4.9,1.1-7.3
		c0,1,0,2,0.1,3c0,0.4,0.8,0.6,0.8,0.1c0.3-2.1,0.6-4.1,1-6.1c0.5-0.6,1.1-1.2,1.6-1.6c1.8-1.3,3.8-1.8,5.8-1.7
		C438.4,148,438.1,150.2,437.9,152.4z"/>
	<path fill="#E0E0E0" d="M271.6,275.7c7.3-6,11-14.8,14-23.5c3.4-9.9,6.3-19.9,11.9-28.9c0.8-1.3,1.7-2.6,2.6-3.9
		c0.2,0.1,0.4,0,0.4-0.2c0-0.2,0-0.3,0.1-0.5c5.6-8,12.5-15,20.4-20.8c9.7-7.1,20.3-11.5,31.6-15.3c0.2-0.1,0.1-0.3-0.1-0.3
		c-14.3,2.3-28,10.4-38.7,20c-4.9,4.3-9.2,9.1-13.1,14.3c0.1-1.7,0-3.5,0.3-5.3c0.4-2.5,1-5.2,1.9-7.6c0,0,0,0,0,0
		c-2,4.1-4,9.6-3.2,14.4c-4.4,6.2-8,12.9-10.7,20c-5.5,14.2-9.1,32.6-24.3,39.9c-10.4,5-22.4,2.7-30.6-4.3c-0.1-1.8-0.2-3.6-0.2-5.4
		c0-0.2-0.4-0.2-0.4,0c-0.1,1.6-0.1,3.3,0,4.8c-3.9-3.5-6.8-8.2-8.1-13.7c-1.1-4.7-1-10,2-14.1c3.2-4.2,8.5-5.4,13.1-2.9
		c3.3,1.8,5.8,5,6.9,8.5c0.9,2.6,1.2,5.9-0.4,8.4c-1.8,2.9-7.4,3.4-7.9-0.8c-0.1-1.1-1.8-0.8-1.6,0.3c0.8,6.4,9.4,5.4,11.6,0.5
		c2.9-6.4-1.2-14.5-6.7-18.2c-6.3-4.2-14-2.2-17.9,4.3c-2.8,4.8-2.8,10.5-1.1,15.8c-1.1-1.6-2.7-3-3.9-4.1c-1.7-1.6-5-4.9-7.5-4.6
		c-0.1,0-0.2,0.1-0.1,0.2c0.5,1.1,1.5,1.5,2.5,2.2c1.4,1,2.8,2.2,4,3.4c1.2,1.2,2.4,2.6,3.4,4c0.7,1,1.2,2,2.2,2.6
		c0.2,0.2,0.6,0,0.8-0.2c0.6,1.4,1.4,2.7,2.2,3.9c1.9,2.9,4.2,5.4,6.9,7.4c0.5,4.1,1.6,8,3.3,12c0,0.1,0.2,0,0.1-0.1
		c-1.4-3.7-2.3-7.6-2.8-11.5C245.3,284.4,260.9,284.6,271.6,275.7z"/>
	<g>
		<path fill="#E0E0E0" d="M606.4,170.2c8.2,4.6,19.3-1.2,20.3-10.4c0.2-1.5-2.4-1.9-2.7-0.4c-2.5,11.9-18.8,12.1-21.9,0.3
			c-2.9-11.2,8.8-19.8,19.2-16.9c4.6,1.3,7.9,3.6,10.3,6.7v-3.7c-1.2-1.2-2.5-2.3-4-3.3c-7.9-5-18.9-3.9-25.1,3.4
			C596.1,153.2,597.8,165.5,606.4,170.2z"/>
		<path fill="#E0E0E0" d="M631.5,177.9c-4.1,7.1-10.9,12.4-19.4,12.5c-20.4,0.2-29.7-22.5-33.5-38.9c-3.6-15.4-4.9-32.1-13.3-46
			c-10.5-17.3-30.2-22.9-48.8-26.6c-0.4-0.1-0.5,0.5-0.2,0.6c12.1,3.6,25,7.1,35.3,14.7c10,7.4,15.3,18.5,18.5,30.2
			c5.3,19.7,5.6,43.2,20.6,58.7c7.3,7.6,18.7,12.4,29.1,8.6c4.7-1.7,8.6-4.8,11.7-8.6V177.9z"/>
	</g>
	<g>
		<path fill="#E0E0E0" d="M55.7,483c-7.4-12.6-15.2-24.6-19.7-38.6c-4.8-15.4-6.8-31.6-5.5-47.7c1.3-16.6,6.3-31.8,12.6-47.1
			c0.1-0.3-0.3-0.4-0.4-0.2c-10.5,17.2-14.3,38.9-14,58.8c0.4,20.5,5.6,40.5,15.3,58.6c10,18.7,26.2,39.1,20,61.6
			c-6.4,23.4-33.2,35.7-55,24.5c-2.9-1.5-5.7-3.4-7.9-5.8v4.6c5.3,4.4,12.4,7.1,19.1,8c24.4,3.3,47.2-16.2,47.7-40.8
			C68,505.9,62.2,494,55.7,483z"/>
		<path fill="#E0E0E0" d="M1,523.8c1.1-0.8,2.4-1.5,3.7-2c4.8-1.8,10.4-1.6,15.2,0.4c3.5,1.5,7.3,4.2,8.5,8c1.5,4.5-3,10.9-8,7.6
			c-1.2-0.8-2.4,1.2-1.2,2c7.4,4.9,14.1-5,11-11.8c-4.1-8.9-16.4-11.9-25.1-9.4c-1.5,0.4-2.9,1-4.2,1.8V523.8z"/>
	</g>
</g>
</svg>
